<svg width="22" height="11" viewBox="0 0 22 11" fill="none" xmlns="http://www.w3.org/2000/svg">
<g filter="url(#filter0_d_8_193)">
<path d="M6 3C5.60218 3 5.22064 2.84196 4.93934 2.56066C4.65804 2.27936 4.5 1.89782 4.5 1.5C4.5 1.10218 4.65804 0.720644 4.93934 0.43934C5.22064 0.158035 5.60218 0 6 0C6.39782 0 6.77936 0.158035 7.06066 0.43934C7.34196 0.720644 7.5 1.10218 7.5 1.5C7.5 1.89782 7.34196 2.27936 7.06066 2.56066C6.77936 2.84196 6.39782 3 6 3ZM11 3C10.6022 3 10.2206 2.84196 9.93934 2.56066C9.65804 2.27936 9.5 1.89782 9.5 1.5C9.5 1.10218 9.65804 0.720644 9.93934 0.43934C10.2206 0.158035 10.6022 0 11 0C11.3978 0 11.7794 0.158035 12.0607 0.43934C12.342 0.720644 12.5 1.10218 12.5 1.5C12.5 1.89782 12.342 2.27936 12.0607 2.56066C11.7794 2.84196 11.3978 3 11 3ZM16 3C15.6022 3 15.2206 2.84196 14.9393 2.56066C14.658 2.27936 14.5 1.89782 14.5 1.5C14.5 1.10218 14.658 0.720644 14.9393 0.43934C15.2206 0.158035 15.6022 0 16 0C16.3978 0 16.7794 0.158035 17.0607 0.43934C17.342 0.720644 17.5 1.10218 17.5 1.5C17.5 1.89782 17.342 2.27936 17.0607 2.56066C16.7794 2.84196 16.3978 3 16 3Z" fill="#898290"/>
<path d="M6 2.5C5.73478 2.5 5.48043 2.39464 5.29289 2.20711C5.10536 2.01957 5 1.76522 5 1.5C5 1.23478 5.10536 0.980429 5.29289 0.792893C5.48043 0.605357 5.73478 0.5 6 0.5C6.26522 0.5 6.51957 0.605357 6.70711 0.792893C6.89464 0.980429 7 1.23478 7 1.5C7 1.76522 6.89464 2.01957 6.70711 2.20711C6.51957 2.39464 6.26522 2.5 6 2.5ZM11 2.5C10.7348 2.5 10.4804 2.39464 10.2929 2.20711C10.1054 2.01957 10 1.76522 10 1.5C10 1.23478 10.1054 0.980429 10.2929 0.792893C10.4804 0.605357 10.7348 0.5 11 0.5C11.2652 0.5 11.5196 0.605357 11.7071 0.792893C11.8946 0.980429 12 1.23478 12 1.5C12 1.76522 11.8946 2.01957 11.7071 2.20711C11.5196 2.39464 11.2652 2.5 11 2.5ZM16 2.5C15.7348 2.5 15.4804 2.39464 15.2929 2.20711C15.1054 2.01957 15 1.76522 15 1.5C15 1.23478 15.1054 0.980429 15.2929 0.792893C15.4804 0.605357 15.7348 0.5 16 0.5C16.2652 0.5 16.5196 0.605357 16.7071 0.792893C16.8946 0.980429 17 1.23478 17 1.5C17 1.76522 16.8946 2.01957 16.7071 2.20711C16.5196 2.39464 16.2652 2.5 16 2.5Z" stroke="black"/>
</g>
<defs>
<filter id="filter0_d_8_193" x="0.5" y="0" width="21" height="11" filterUnits="userSpaceOnUse" color-interpolation-filters="sRGB">
<feFlood flood-opacity="0" result="BackgroundImageFix"/>
<feColorMatrix in="SourceAlpha" type="matrix" values="0 0 0 0 0 0 0 0 0 0 0 0 0 0 0 0 0 0 127 0" result="hardAlpha"/>
<feOffset dy="4"/>
<feGaussianBlur stdDeviation="2"/>
<feComposite in2="hardAlpha" operator="out"/>
<feColorMatrix type="matrix" values="0 0 0 0 0 0 0 0 0 0 0 0 0 0 0 0 0 0 0.25 0"/>
<feBlend mode="normal" in2="BackgroundImageFix" result="effect1_dropShadow_8_193"/>
<feBlend mode="normal" in="SourceGraphic" in2="effect1_dropShadow_8_193" result="shape"/>
</filter>
</defs>
</svg>
